<svg viewBox="0 0 500 500" xmlns="http://www.w3.org/2000/svg"><path d="M500 41.755C500 18.71 481.29 0 458.245 0H41.755C18.71 0 0 18.71 0 41.755v416.49C0 481.29 18.71 500 41.755 500h416.49C481.29 500 500 481.29 500 458.245V41.755z" fill="#003167"/><path d="M471.061 65.476c0-19.522-15.849-35.371-35.371-35.371H64.31c-19.522 0-35.371 15.849-35.371 35.371v369.048c0 19.522 15.849 35.371 35.371 35.371h371.38c19.522 0 35.371-15.849 35.371-35.371V65.476z" fill="#00023a"/><path d="M422 95.932c0-3.311-2.689-6-6-6H188.446c-3.311 0-6 2.689-6 6v48.983c0 3.311 2.689 6 6 6H416c3.311 0 6-2.689 6-6V95.932zm0 129.577c0-3.312-2.689-6-6-6H188.446c-3.311 0-6 2.688-6 6v48.982c0 3.312 2.689 6 6 6H416c3.311 0 6-2.688 6-6v-48.982zm0 129.576c0-3.311-2.689-6-6-6H188.446c-3.311 0-6 2.689-6 6v48.983c0 3.311 2.689 6 6 6H416c3.311 0 6-2.689 6-6v-48.983z" fill="#637599" fill-opacity="0.24"/><path d="M99.868 131.59l-20.794-20.791L68 121.827l31.868 31.868 55.515-55.515-11.028-11.028-44.487 44.438zm0 129.577l-20.794-20.791L68 251.404l31.868 31.867 55.515-55.515-11.028-11.027-44.487 44.438zm0 129.576l-20.794-20.79L68 380.98l31.868 31.868 55.515-55.515-11.028-11.028-44.487 44.438z" fill="#637599" /></svg>
